<?xml version="1.0" encoding="utf-8"?>
<!-- Generator: Adobe Illustrator 25.2.1, SVG Export Plug-In . SVG Version: 6.00 Build 0)  -->
<svg version="1.1" id="Layer_1" xmlns="http://www.w3.org/2000/svg" xmlns:xlink="http://www.w3.org/1999/xlink" x="0px" y="0px"
	 viewBox="0 0 263.89 152.83" style="enable-background:new 0 0 263.89 152.83;" xml:space="preserve">
<style type="text/css">
	.st0{fill:#6D8D24;}
	.st1{fill:#939598;}
	.st2{fill:#FFFFFF;}
</style>
<g>
	<path class="st0" d="M86.76,0c7.78,15.19,12.69,37.48,12.69,62.33c0,45.77-16.66,82.86-37.21,82.86
		c-20.55,0-37.21-37.1-37.21-82.86c0-5.86,0.28-11.57,0.79-17.08c-0.83,7.02-1.28,14.39-1.28,21.99c0,47.27,17.21,85.59,38.43,85.59
		c21.22,0,38.43-38.32,38.43-85.59C101.41,39.97,95.69,15.67,86.76,0z"/>
	<path class="st1" d="M152.83,124.05c-15.19,7.78-37.48,12.69-62.33,12.69c-45.77,0-82.86-16.66-82.86-37.21
		c0-20.55,37.1-37.2,82.86-37.2c5.86,0,11.57,0.27,17.09,0.79c-7.02-0.83-14.39-1.28-21.99-1.28C38.32,61.84,0,79.05,0,100.27
		c0,21.22,38.32,38.43,85.58,38.43C112.86,138.7,137.15,132.97,152.83,124.05z"/>
	<path class="st2" d="M144.16,46.75c-5.24,16.24-17.53,35.48-35.1,53.05c-32.36,32.36-70.37,46.81-84.9,32.29
		c-14.53-14.53-0.07-52.54,32.29-84.9c4.14-4.14,8.38-7.99,12.64-11.52C63.53,40.04,58,44.94,52.62,50.31
		C19.2,83.74,4.27,123,19.28,138.01c15.01,15.01,54.27,0.08,87.69-33.35C126.25,85.37,139.38,64.15,144.16,46.75z"/>
	<g>
		<path class="st2" d="M126.17,102.74c0.62,4.03,6.5,6.3,13.11,6.3c4.75,0,9.29-0.52,13.83-1.96l2.37,12.39
			c-6.09,2.37-12.7,3.2-19,3.2c-17.86,0-27.98-9.81-27.98-25.91c0-11.77,7.64-27.05,26.33-27.05c16.42,0,23.44,12.08,23.44,26.02
			c0,2.99-0.41,5.78-0.72,7.02H126.17z M141.14,90.14c0-2.89-1.34-8.26-7.23-8.26c-5.47,0-7.64,5.06-7.95,8.26H141.14z"/>
		<path class="st2" d="M164.06,88.18c0-6.81-0.21-12.59-0.41-17.34h16.11l0.83,6.5h0.21c3.82-5.06,9.5-7.64,16.52-7.64
			c10.53,0,20.86,9.4,20.86,25.91c0,18.58-12.08,27.15-23.13,27.15c-5.78,0-10.22-2.27-12.08-4.85h-0.21v24.16h-18.69V88.18z
			 M182.75,99.43c0,1.14,0.1,2.17,0.31,3.1c0.72,3.3,3.51,6.09,7.23,6.09c5.57,0,8.98-4.75,8.98-12.08c0-7.23-2.89-12.29-8.78-12.29
			c-3.72,0-6.92,2.89-7.54,6.5c-0.21,0.72-0.21,1.55-0.21,2.37V99.43z"/>
		<path class="st2" d="M263.89,120.5c-2.99,1.45-8.26,2.17-13.94,2.17c-16.93,0-27.56-9.91-27.56-26.02
			c0-14.45,10.01-26.84,29.84-26.84c3.61,0,8.05,0.52,11.67,1.76l-2.58,13.63c-1.76-0.72-4.23-1.24-8.05-1.24
			c-6.92,0-11.87,4.75-11.77,12.08c0,8.26,5.68,12.18,12.29,12.18c3.2,0,5.78-0.41,8.16-1.34L263.89,120.5z"/>
	</g>
</g>
</svg>
